<?xml version="1.0" encoding="utf-8"?>
<!-- Generator: Adobe Illustrator 26.0.3, SVG Export Plug-In . SVG Version: 6.00 Build 0)  -->
<svg version="1.1" id="Layer_1" xmlns="http://www.w3.org/2000/svg" xmlns:xlink="http://www.w3.org/1999/xlink" x="0px" y="0px"
	 viewBox="0 0 213 213" style="enable-background:new 0 0 213 213;" xml:space="preserve">
<style type="text/css">
	.st0{fill:#EC248F;}
</style>
<path class="st0" d="M212.1,163.7l-23.3-57.2l23.3-57.2c2.2-6.6,0-13.2-4.4-17.6L181.3,5.3c-4.4-4.4-11-6.6-17.6-4.4l-57.2,23.3
	L49.3,0.9c-6.6-2.2-13.2,0-17.6,4.4L5.3,31.7c-4.4,4.4-6.6,11-4.4,17.6l23.3,57.2L0.9,163.7c-2.2,6.6,0,13.2,4.4,17.6l26.4,26.4
	c4.4,4.4,11,6.6,17.6,4.4l57.2-23.3l57.2,23.3c6.6,2.2,13.2,0,17.6-4.4l26.4-26.4C212.1,176.9,214.3,170.3,212.1,163.7z
	 M192.5,170.1l-22.4,22.4c-3.7,3.7-9.4,5.6-15,3.7l-48.6-19.8l-48.6,19.8c-5.6,1.9-11.2,0-15-3.7l-22.4-22.4
	c-3.7-3.7-5.6-9.4-3.7-15l19.8-48.6L16.7,57.9c-1.9-5.6,0-11.2,3.7-15l22.4-22.4c3.7-3.7,9.4-5.6,15-3.7l48.6,19.8l48.6-19.8
	c5.6-1.9,11.2,0,15,3.7l22.4,22.4c3.7,3.7,5.6,9.4,3.7,15l-19.8,48.6l19.8,48.6C198.1,160.7,196.3,166.3,192.5,170.1z"/>
<path class="st0" d="M135.5,59.8h-8.1c-1.4,0-2,0.7-2.7,1.4l-18.2,18.2L88.3,61.2c-0.7-0.7-1.4-1.4-2.7-1.4h-8.1
	c-1.4,0-2,0.7-2.7,1.4L61.2,74.7c-0.7,0.7-1.4,1.4-1.4,2.7v8.1c0,1.4,0.7,2,1.4,2.7l18.2,18.2l-18.2,18.2c-0.7,0.7-1.4,1.4-1.4,2.7
	v8.1c0,1.4,0.7,2,1.4,2.7l13.6,13.6c0.7,0.7,1.4,1.4,2.7,1.4h8.1c1.4,0,2-0.7,2.7-1.4l18.2-18.2l18.2,18.2c0.7,0.7,1.4,1.4,2.7,1.4
	h8.1c1.4,0,2-0.7,2.7-1.4l13.6-13.6c0.7-0.7,1.4-1.4,1.4-2.7v-8.1c0-1.4-0.7-2-1.4-2.7l-18.2-18.2l18.2-18.2
	c0.7-0.7,1.4-1.4,1.4-2.7v-8.1c0-1.4-0.7-2-1.4-2.7l-13.6-13.6C137.6,60.5,136.9,59.8,135.5,59.8z"/>
</svg>
